# Blender v2.93.6 OBJ File: 'PolonskyNEWWALKWAY.blend'
# www.blender.org
mtllib NewSidewalk.mtl
o Sidewalk_Cube.002
v 15.179115 -7.124552 161.495056
v 15.179115 -5.124552 161.495056
v 15.179115 -7.124552 153.683838
v 15.179115 -5.124552 153.683838
v 223.019440 -7.124552 161.495056
v 223.019440 -5.124552 161.495056
v 223.019440 -7.124552 153.683838
v 223.019440 -5.124552 153.683838
v 212.627411 -7.124552 153.683838
v 202.235397 -7.124552 153.683838
v 191.843384 -7.124552 153.683838
v 181.451355 -7.124552 153.683838
v 171.059341 -7.124552 153.683838
v 160.667328 -7.124552 153.683838
v 150.275314 -7.124552 153.683838
v 139.883301 -7.124552 153.683838
v 129.491287 -7.124552 153.683838
v 119.099266 -7.124552 153.683838
v 108.707253 -7.124552 153.683838
v 98.315239 -7.124552 153.683838
v 87.923218 -7.124552 153.683838
v 77.531204 -7.124552 153.683838
v 67.139191 -7.124552 153.683838
v 56.747177 -7.124552 153.683838
v 46.355156 -7.124552 153.683838
v 35.963142 -7.124552 153.683838
v 25.571136 -7.124552 153.683838
v 25.571136 -5.124552 153.683838
v 35.963150 -5.124552 153.683838
v 46.355171 -5.124552 153.683838
v 56.747189 -5.124552 153.683838
v 67.139206 -5.124552 153.683838
v 77.531219 -5.124552 153.683838
v 87.923233 -5.124552 153.683838
v 98.315247 -5.124552 153.683838
v 108.707268 -5.124552 153.683838
v 119.099281 -5.124552 153.683838
v 129.491302 -5.124552 153.683838
v 139.883316 -5.124552 153.683838
v 150.275330 -5.124552 153.683838
v 160.667343 -5.124552 153.683838
v 171.059357 -5.124552 153.683838
v 181.451370 -5.124552 153.683838
v 191.843384 -5.124552 153.683838
v 202.235413 -5.124552 153.683838
v 212.627411 -5.124552 153.683838
v 25.571136 -7.124552 161.495056
v 35.963150 -7.124552 161.495056
v 46.355171 -7.124552 161.495056
v 56.747189 -7.124552 161.495056
v 67.139206 -7.124552 161.495056
v 77.531219 -7.124552 161.495056
v 87.923233 -7.124552 161.495056
v 98.315247 -7.124552 161.495056
v 108.707268 -7.124552 161.495056
v 119.099281 -7.124552 161.495056
v 129.491302 -7.124552 161.495056
v 139.883316 -7.124552 161.495056
v 150.275330 -7.124552 161.495056
v 160.667343 -7.124552 161.495056
v 171.059357 -7.124552 161.495056
v 181.451370 -7.124552 161.495056
v 191.843384 -7.124552 161.495056
v 202.235413 -7.124552 161.495056
v 212.627411 -7.124552 161.495056
v 212.627411 -5.124552 161.495056
v 202.235397 -5.124552 161.495056
v 191.843384 -5.124552 161.495056
v 181.451355 -5.124552 161.495056
v 171.059341 -5.124552 161.495056
v 160.667328 -5.124552 161.495056
v 150.275314 -5.124552 161.495056
v 139.883301 -5.124552 161.495056
v 129.491287 -5.124552 161.495056
v 119.099266 -5.124552 161.495056
v 108.707253 -5.124552 161.495056
v 98.315239 -5.124552 161.495056
v 87.923218 -5.124552 161.495056
v 77.531204 -5.124552 161.495056
v 67.139191 -5.124552 161.495056
v 56.747177 -5.124552 161.495056
v 46.355156 -5.124552 161.495056
v 35.963142 -5.124552 161.495056
v 25.571136 -5.124552 161.495056
vt -0.289032 0.375940
vt -0.289032 0.739576
vt -0.652667 0.739576
vt -0.652667 0.375940
vt -0.289031 0.030487
vt -0.652667 0.030486
vt -0.652667 0.012304
vt -0.289031 0.012305
vt -1.016303 0.739576
vt -1.016303 0.375940
vt -0.652668 0.375940
vt -0.652668 0.739576
vt -0.652667 0.030487
vt -1.016303 0.030486
vt -1.016303 0.012304
vt -0.652667 0.012305
vt -0.107213 0.375940
vt -0.089031 0.375940
vt -0.089031 0.739576
vt -0.107212 0.739576
vt 1.009005 0.999998
vt 0.002537 0.999998
vt 0.002549 0.000000
vt 1.009005 0.000000
vt 1.000326 0.999997
vt 0.000000 0.999997
vt 0.000012 0.000000
vt 1.000326 0.000000
vt 1.003626 0.999997
vt 0.002629 0.999997
vt 0.002636 0.000000
vt 1.003626 0.000000
vt 1.000089 0.999998
vt 0.002703 0.999998
vt 0.002713 0.000000
vt 1.000089 0.000000
vt -0.000401 0.000000
vt 1.001673 0.000000
vt 1.001673 0.999998
vt -0.000401 0.999998
vt 1.005559 0.999998
vt 0.000192 0.999998
vt 0.000195 0.000000
vt 1.005552 0.000000
vt 1.000382 0.999997
vt -0.000150 0.999997
vt -0.000140 0.000000
vt 1.000382 0.000000
vt -0.000242 0.000000
vt 1.000810 0.000000
vt 1.000803 0.999997
vt -0.000242 0.999997
vt 0.000432 0.000000
vt 0.997554 0.000000
vt 0.997550 0.999998
vt 0.000438 0.999998
vt -0.001078 0.000000
vt 1.002702 0.000000
vt 1.002698 0.999998
vt -0.001072 0.999998
vt -0.000139 0.000000
vt 1.001801 0.000000
vt 1.001801 0.999997
vt -0.000131 0.999997
vt 0.998511 0.999997
vt 0.001053 0.999997
vt 0.001061 0.000000
vt 0.998511 0.000000
vt -0.000184 0.000000
vt 1.000000 0.000000
vt 1.000000 0.999997
vt -0.000172 0.999997
vt -0.002093 0.000000
vt 1.006053 0.000000
vt 1.006048 0.999998
vt -0.002093 0.999998
vt 0.000239 0.000000
vt 1.005976 0.000000
vt 1.005962 0.999998
vt 0.000235 0.999998
vt 0.000573 0.000000
vt 1.007773 0.000000
vt 1.007773 0.999997
vt 0.000582 0.999997
vt 1.008587 0.999998
vt 0.000687 0.999998
vt 0.000697 0.000000
vt 1.008587 0.000000
vt 0.000455 0.000000
vt 1.008931 0.000000
vt 1.008919 0.999998
vt 0.000455 0.999998
vt 1.002275 0.999998
vt 0.002192 0.999998
vt 0.002201 0.000000
vt 1.002275 0.000000
vt -0.000489 0.000000
vt 1.004467 0.000000
vt 1.004467 0.999997
vt -0.000480 0.999997
vt -0.089031 0.375940
vt -0.070849 0.375940
vt -0.070849 0.739576
vt -0.089031 0.739576
vt -0.070849 0.012304
vt -0.052667 0.012304
vt -0.052667 0.375940
vt -0.070849 0.375940
vt -0.216304 0.739576
vt -0.234485 0.739576
vt -0.234485 0.375940
vt -0.216304 0.375940
vt -0.252667 0.739576
vt -0.252667 0.375940
vt -0.161758 0.375940
vt -0.143576 0.375940
vt -0.143576 0.739576
vt -0.161758 0.739576
vt -0.198122 0.739576
vt -0.216304 0.739576
vt -0.216303 0.375940
vt -0.198122 0.375940
vt -0.179940 0.375940
vt -0.198122 0.375940
vt -0.198122 0.012304
vt -0.179940 0.012304
vt -0.216304 0.375940
vt -0.216303 0.012304
vt -0.125394 0.375940
vt -0.107213 0.375940
vt -0.107213 0.739576
vt -0.125394 0.739576
vt -0.234485 0.375940
vt -0.252667 0.375940
vt -0.252667 0.012304
vt -0.234485 0.012304
vt -0.252667 0.739576
vt -0.270849 0.739576
vt -0.270849 0.375940
vt -0.252667 0.375940
vt -0.252667 0.375940
vt -0.270849 0.375940
vt -0.270849 0.012304
vt -0.252667 0.012304
vt -0.652667 0.775939
vt -0.652667 0.757757
vt -0.289031 0.757758
vt -0.289031 0.775939
vt -0.179940 0.739576
vt -0.198122 0.739576
vt -0.198122 0.375940
vt -0.179940 0.375940
vt -0.125394 0.739576
vt -0.143576 0.739576
vt -0.143576 0.375940
vt -0.125394 0.375940
vt -0.161758 0.739576
vt -0.179940 0.739576
vt -0.179940 0.375940
vt -0.161758 0.375940
vt -0.070849 0.375940
vt -0.089031 0.375940
vt -0.089031 0.012304
vt -0.070849 0.012304
vt -0.052667 0.739576
vt -0.070849 0.739576
vt -0.070849 0.375940
vt -0.052667 0.375940
vt -0.270849 0.375940
vt -0.289031 0.375940
vt -0.289031 0.012304
vt -0.270849 0.012304
vt -0.652667 0.375939
vt -1.016303 0.375940
vt -1.016303 0.357758
vt -0.652667 0.357757
vt -1.016303 0.339577
vt -0.652667 0.339575
vt -1.016303 0.321395
vt -0.652667 0.321394
vt -1.016303 0.303213
vt -0.652667 0.303212
vt -1.016303 0.285031
vt -0.652668 0.285030
vt -1.016303 0.266849
vt -0.652668 0.266849
vt -1.016303 0.248668
vt -0.652668 0.248667
vt -1.016303 0.230486
vt -0.652668 0.230485
vt -1.016303 0.212304
vt -0.652668 0.212304
vt -1.016303 0.194122
vt -0.652668 0.194122
vt -1.016303 0.175940
vt -0.652668 0.175940
vt -1.016303 0.157758
vt -0.652668 0.157759
vt -1.016303 0.139577
vt -0.652668 0.139577
vt -1.016303 0.121395
vt -0.652668 0.121395
vt -1.016303 0.103213
vt -0.652668 0.103214
vt -1.016303 0.085031
vt -0.652667 0.085032
vt -1.016303 0.066849
vt -0.652667 0.066850
vt -1.016303 0.048668
vt -0.652667 0.048669
vt -0.289031 0.375939
vt -0.652667 0.375940
vt -0.652667 0.357758
vt -0.289031 0.357757
vt -0.652667 0.339577
vt -0.289031 0.339575
vt -0.652667 0.321395
vt -0.289031 0.321394
vt -0.652667 0.303213
vt -0.289031 0.303212
vt -0.652667 0.285031
vt -0.289031 0.285030
vt -0.652667 0.266849
vt -0.289031 0.266849
vt -0.652667 0.248668
vt -0.289031 0.248667
vt -0.652667 0.230486
vt -0.289031 0.230485
vt -0.652667 0.212304
vt -0.289031 0.212304
vt -0.652667 0.194122
vt -0.289031 0.194122
vt -0.652667 0.175940
vt -0.289031 0.175940
vt -0.652667 0.157758
vt -0.289031 0.157759
vt -0.652667 0.139577
vt -0.289031 0.139577
vt -0.652667 0.121395
vt -0.289031 0.121395
vt -0.652667 0.103213
vt -0.289031 0.103214
vt -0.652667 0.085031
vt -0.289031 0.085032
vt -0.652667 0.066849
vt -0.289031 0.066850
vt -0.652667 0.048668
vt -0.289031 0.048669
vn -1.0000 0.0000 0.0000
vn 0.0000 0.0000 -1.0000
vn 1.0000 0.0000 0.0000
vn 0.0000 0.0000 1.0000
vn 0.0000 -1.0000 0.0000
vn 0.0000 1.0000 0.0000
usemtl Material.008
s off
f 1/1/1 2/2/1 4/3/1 3/4/1
f 9/5/2 46/6/2 8/7/2 7/8/2
f 7/9/3 8/10/3 6/11/3 5/12/3
f 47/13/4 84/14/4 2/15/4 1/16/4
f 9/17/5 7/18/5 5/19/5 65/20/5
f 28/21/6 4/22/6 2/23/6 84/24/6
f 8/25/6 46/26/6 66/27/6 6/28/6
f 46/29/6 45/30/6 67/31/6 66/32/6
f 45/33/6 44/34/6 68/35/6 67/36/6
f 44/37/6 43/38/6 69/39/6 68/40/6
f 43/41/6 42/42/6 70/43/6 69/44/6
f 42/45/6 41/46/6 71/47/6 70/48/6
f 41/49/6 40/50/6 72/51/6 71/52/6
f 40/53/6 39/54/6 73/55/6 72/56/6
f 39/57/6 38/58/6 74/59/6 73/60/6
f 38/61/6 37/62/6 75/63/6 74/64/6
f 37/65/6 36/66/6 76/67/6 75/68/6
f 36/69/6 35/70/6 77/71/6 76/72/6
f 35/73/6 34/74/6 78/75/6 77/76/6
f 34/77/6 33/78/6 79/79/6 78/80/6
f 33/81/6 32/82/6 80/83/6 79/84/6
f 32/85/6 31/86/6 81/87/6 80/88/6
f 31/89/6 30/90/6 82/91/6 81/92/6
f 30/93/6 29/94/6 83/95/6 82/96/6
f 29/97/6 28/98/6 84/99/6 83/100/6
f 3/101/5 27/102/5 47/103/5 1/104/5
f 27/105/5 26/106/5 48/107/5 47/108/5
f 26/109/5 25/110/5 49/111/5 48/112/5
f 25/110/5 24/113/5 50/114/5 49/111/5
f 24/115/5 23/116/5 51/117/5 50/118/5
f 23/119/5 22/120/5 52/121/5 51/122/5
f 22/123/5 21/124/5 53/125/5 52/126/5
f 21/124/5 20/127/5 54/128/5 53/125/5
f 20/129/5 19/130/5 55/131/5 54/132/5
f 19/133/5 18/134/5 56/135/5 55/136/5
f 18/137/5 17/138/5 57/139/5 56/140/5
f 17/141/5 16/142/5 58/143/5 57/144/5
f 16/145/5 15/146/5 59/147/5 58/148/5
f 15/149/5 14/150/5 60/151/5 59/152/5
f 14/153/5 13/154/5 61/155/5 60/156/5
f 13/157/5 12/158/5 62/159/5 61/160/5
f 12/161/5 11/162/5 63/163/5 62/164/5
f 11/165/5 10/166/5 64/167/5 63/168/5
f 10/169/5 9/170/5 65/171/5 64/172/5
f 5/173/4 6/174/4 66/175/4 65/176/4
f 65/176/4 66/175/4 67/177/4 64/178/4
f 64/178/4 67/177/4 68/179/4 63/180/4
f 63/180/4 68/179/4 69/181/4 62/182/4
f 62/182/4 69/181/4 70/183/4 61/184/4
f 61/184/4 70/183/4 71/185/4 60/186/4
f 60/186/4 71/185/4 72/187/4 59/188/4
f 59/188/4 72/187/4 73/189/4 58/190/4
f 58/190/4 73/189/4 74/191/4 57/192/4
f 57/192/4 74/191/4 75/193/4 56/194/4
f 56/194/4 75/193/4 76/195/4 55/196/4
f 55/196/4 76/195/4 77/197/4 54/198/4
f 54/198/4 77/197/4 78/199/4 53/200/4
f 53/200/4 78/199/4 79/201/4 52/202/4
f 52/202/4 79/201/4 80/203/4 51/204/4
f 51/204/4 80/203/4 81/205/4 50/206/4
f 50/206/4 81/205/4 82/207/4 49/208/4
f 49/208/4 82/207/4 83/209/4 48/210/4
f 48/210/4 83/209/4 84/14/4 47/13/4
f 3/211/2 4/212/2 28/213/2 27/214/2
f 27/214/2 28/213/2 29/215/2 26/216/2
f 26/216/2 29/215/2 30/217/2 25/218/2
f 25/218/2 30/217/2 31/219/2 24/220/2
f 24/220/2 31/219/2 32/221/2 23/222/2
f 23/222/2 32/221/2 33/223/2 22/224/2
f 22/224/2 33/223/2 34/225/2 21/226/2
f 21/226/2 34/225/2 35/227/2 20/228/2
f 20/228/2 35/227/2 36/229/2 19/230/2
f 19/230/2 36/229/2 37/231/2 18/232/2
f 18/232/2 37/231/2 38/233/2 17/234/2
f 17/234/2 38/233/2 39/235/2 16/236/2
f 16/236/2 39/235/2 40/237/2 15/238/2
f 15/238/2 40/237/2 41/239/2 14/240/2
f 14/240/2 41/239/2 42/241/2 13/242/2
f 13/242/2 42/241/2 43/243/2 12/244/2
f 12/244/2 43/243/2 44/245/2 11/246/2
f 11/246/2 44/245/2 45/247/2 10/248/2
f 10/248/2 45/247/2 46/6/2 9/5/2
