# Blender v2.93.6 OBJ File: 'Street Light.blend'
# www.blender.org
mtllib Street Light Pole.mtl
o Pole_Cube.001
v -0.380548 0.208331 -0.368281
v -0.264940 3.103587 -0.350292
v 0.380548 0.208331 -0.368281
v 0.264940 3.103587 -0.350292
v -0.380548 3.103587 -0.368281
v 0.380548 3.103587 -0.368281
v -0.264940 25.898632 -0.350292
v 0.264940 25.898632 -0.350292
v 0.264940 25.740582 -0.350292
v -0.264940 25.740582 -0.350292
v -0.264940 25.568123 -0.350292
v 0.264940 25.568123 -0.350292
v -0.380548 0.208331 0.368281
v -0.264940 3.103587 0.350292
v 0.380548 0.208331 0.368281
v 0.264940 3.103587 0.350292
v -0.380548 0.208331 0.000000
v -0.264940 3.103587 0.000000
v 0.380548 0.208331 0.000000
v 0.264940 3.103587 0.000000
v -0.380548 3.103587 0.000000
v -0.380548 3.103587 0.368281
v 0.380548 3.103587 0.368281
v 0.380548 3.103587 0.000000
v -0.264940 25.898632 0.000000
v 0.264940 25.898632 0.000000
v -0.264940 25.898632 0.350292
v 0.264940 25.898632 0.350292
v 0.264940 25.740582 0.350292
v 0.264940 25.740582 0.000000
v -0.264940 25.740582 0.000000
v -0.264940 25.740582 0.350292
v 0.264940 25.568123 0.000000
v -0.264940 25.568123 0.350292
v 0.264940 25.568123 0.350292
v -0.264940 25.568123 0.000000
v 0.345708 25.837908 -3.295758
v 0.345708 26.062941 -3.295758
v -0.345708 26.062941 -3.295758
v -0.345708 25.837908 -3.295758
v 0.210191 25.882017 -4.080698
v 0.210191 26.018837 -4.080698
v -0.210191 26.018837 -4.080698
v -0.210191 25.882017 -4.080698
vt 0.375000 0.125000
vt 0.625000 0.125000
vt 0.625000 0.250000
vt 0.375000 0.250000
vt 0.625000 0.500000
vt 0.375000 0.500000
vt 0.639463 0.625000
vt 0.639463 0.514463
vt 0.639463 0.514463
vt 0.639463 0.625000
vt 0.125000 0.500000
vt 0.375000 0.625000
vt 0.125000 0.625000
vt 0.625000 0.625000
vt 0.860537 0.625000
vt 0.860537 0.514463
vt 0.875000 0.500000
vt 0.875000 0.625000
vt 0.639463 0.514463
vt 0.639463 0.625000
vt 0.860537 0.514463
vt 0.860537 0.625000
vt 0.860537 0.514463
vt 0.860537 0.625000
vt 0.860537 0.514463
vt 0.860537 0.514463
vt 0.860537 0.514463
vt 0.860537 0.625000
vt 0.639463 0.625000
vt 0.639463 0.514463
vt 0.375000 0.250000
vt 0.625000 0.250000
vt 0.375000 0.500000
vt 0.625000 0.500000
vt 0.639463 0.514463
vt 0.639463 0.514463
vt 0.125000 0.500000
vt 0.875000 0.500000
vt 0.860537 0.514463
vt 0.639463 0.514463
vt 0.860537 0.514463
vt 0.860537 0.514463
vt 0.639463 0.514463
vt 0.860537 0.514463
vt 0.860537 0.514463
vt 0.860537 0.514463
vt 0.639463 0.514463
vt 0.639463 0.514463
vt 0.639463 0.514463
vt 0.639463 0.514463
vn -1.0000 0.0000 0.0000
vn 0.0000 0.0000 -1.0000
vn 1.0000 0.0000 0.0000
vn 0.0000 -1.0000 0.0000
vn 0.0000 1.0000 0.0000
vn -0.9996 0.0000 0.0274
vn 0.0000 0.0000 1.0000
vn -0.9854 0.0000 -0.1701
vn 0.0000 0.9941 0.1088
vn 0.0000 -0.9958 -0.0912
vn 0.9996 0.0000 0.0274
vn 0.9854 0.0000 -0.1701
vn 0.0000 0.9984 -0.0561
usemtl None
s off
f 17/1/1 21/2/1 5/3/1 1/4/1
f 1/4/2 5/3/2 6/5/2 3/6/2
f 30/7/3 9/8/3 8/9/3 26/10/3
f 1/11/4 3/6/4 19/12/4 17/13/4
f 3/6/3 6/5/3 24/14/3 19/12/3
f 18/15/5 2/16/5 5/17/5 21/18/5
f 2/16/5 4/19/5 6/5/5 5/17/5
f 4/19/5 20/20/5 24/14/5 6/5/5
f 8/9/5 7/21/5 25/22/5 26/10/5
f 10/23/1 31/24/1 25/22/1 7/21/1
f 9/8/2 10/23/2 7/21/2 8/9/2
f 11/25/6 10/23/6 39/26/6 40/27/6
f 11/25/1 36/28/1 31/24/1 10/23/1
f 33/29/3 12/30/3 9/8/3 30/7/3
f 20/20/3 4/19/3 12/30/3 33/29/3
f 2/16/1 18/15/1 36/28/1 11/25/1
f 4/19/2 2/16/2 11/25/2 12/30/2
f 17/1/1 13/31/1 22/32/1 21/2/1
f 13/31/7 15/33/7 23/34/7 22/32/7
f 30/7/3 26/10/3 28/35/3 29/36/3
f 13/37/4 17/13/4 19/12/4 15/33/4
f 15/33/3 19/12/3 24/14/3 23/34/3
f 18/15/5 21/18/5 22/38/5 14/39/5
f 14/39/5 22/38/5 23/34/5 16/40/5
f 16/40/5 23/34/5 24/14/5 20/20/5
f 28/35/5 26/10/5 25/22/5 27/41/5
f 32/42/1 27/41/1 25/22/1 31/24/1
f 29/36/7 28/35/7 27/41/7 32/42/7
f 35/43/7 29/36/7 32/42/7 34/44/7
f 34/44/1 32/42/1 31/24/1 36/28/1
f 33/29/3 30/7/3 29/36/3 35/43/3
f 20/20/3 33/29/3 35/43/3 16/40/3
f 14/39/1 34/44/1 36/28/1 18/15/1
f 16/40/7 35/43/7 34/44/7 14/39/7
f 40/27/8 39/26/8 43/45/8 44/46/8
f 10/23/9 9/8/9 38/47/9 39/26/9
f 12/30/10 11/25/10 40/27/10 37/48/10
f 9/8/11 12/30/11 37/48/11 38/47/11
f 41/49/2 44/46/2 43/45/2 42/50/2
f 38/47/12 37/48/12 41/49/12 42/50/12
f 39/26/13 38/47/13 42/50/13 43/45/13
